<svg xmlns="http://www.w3.org/2000/svg" xmlns:xlink="http://www.w3.org/1999/xlink" width="2000" zoomAndPan="magnify" viewBox="0 0 1500 1499.999933" height="2000" preserveAspectRatio="xMidYMid meet" version="1.0"><defs><g/><clipPath id="77ede0c4e5"><path d="M 40.433594 76.699219 L 1460 76.699219 L 1460 1423.300781 L 40.433594 1423.300781 Z M 40.433594 76.699219 " clip-rule="nonzero"/></clipPath><clipPath id="1c93a2d95b"><path d="M 115.433594 76.699219 L 1384.566406 76.699219 C 1404.457031 76.699219 1423.53125 84.601562 1437.597656 98.664062 C 1451.664062 112.730469 1459.566406 131.808594 1459.566406 151.699219 L 1459.566406 1348.300781 C 1459.566406 1368.191406 1451.664062 1387.269531 1437.597656 1401.332031 C 1423.53125 1415.398438 1404.457031 1423.300781 1384.566406 1423.300781 L 115.433594 1423.300781 C 95.542969 1423.300781 76.46875 1415.398438 62.402344 1401.332031 C 48.335938 1387.269531 40.433594 1368.191406 40.433594 1348.300781 L 40.433594 151.699219 C 40.433594 131.808594 48.335938 112.730469 62.402344 98.664062 C 76.46875 84.601562 95.542969 76.699219 115.433594 76.699219 Z M 115.433594 76.699219 " clip-rule="nonzero"/></clipPath><clipPath id="e54232137e"><path d="M 0.433594 0.699219 L 1419.679688 0.699219 L 1419.679688 1347.300781 L 0.433594 1347.300781 Z M 0.433594 0.699219 " clip-rule="nonzero"/></clipPath><clipPath id="65f69fa96e"><path d="M 75.433594 0.699219 L 1344.566406 0.699219 C 1364.457031 0.699219 1383.53125 8.601562 1397.597656 22.664062 C 1411.664062 36.730469 1419.566406 55.808594 1419.566406 75.699219 L 1419.566406 1272.300781 C 1419.566406 1292.191406 1411.664062 1311.269531 1397.597656 1325.332031 C 1383.53125 1339.398438 1364.457031 1347.300781 1344.566406 1347.300781 L 75.433594 1347.300781 C 55.542969 1347.300781 36.46875 1339.398438 22.402344 1325.332031 C 8.335938 1311.269531 0.433594 1292.191406 0.433594 1272.300781 L 0.433594 75.699219 C 0.433594 55.808594 8.335938 36.730469 22.402344 22.664062 C 36.46875 8.601562 55.542969 0.699219 75.433594 0.699219 Z M 75.433594 0.699219 " clip-rule="nonzero"/></clipPath><clipPath id="9731c47649"><rect x="0" width="1420" y="0" height="1348"/></clipPath></defs><g clip-path="url(#77ede0c4e5)"><g clip-path="url(#1c93a2d95b)"><g transform="matrix(1, 0, 0, 1, 40, 76)"><g clip-path="url(#9731c47649)"><g clip-path="url(#e54232137e)"><g clip-path="url(#65f69fa96e)"><path fill="#000000" d="M 0.433594 0.699219 L 1420.679688 0.699219 L 1420.679688 1347.300781 L 0.433594 1347.300781 Z M 0.433594 0.699219 " fill-opacity="1" fill-rule="nonzero"/></g></g></g></g></g></g><g fill="#ffffff" fill-opacity="1"><g transform="translate(199.892594, 641.949374)"><g><path d="M 135.9375 -330.859375 C 184.707031 -330.859375 222.148438 -322.285156 248.265625 -305.140625 C 274.378906 -287.992188 287.4375 -259.910156 287.4375 -220.890625 C 287.4375 -181.554688 274.21875 -153.15625 247.78125 -135.6875 C 221.351562 -118.226562 183.597656 -109.5 134.515625 -109.5 L 111.390625 -109.5 L 111.390625 0 L 37.765625 0 L 37.765625 -322.359375 C 53.804688 -325.503906 70.796875 -327.707031 88.734375 -328.96875 C 106.671875 -330.226562 122.40625 -330.859375 135.9375 -330.859375 Z M 140.65625 -268.09375 C 135.300781 -268.09375 130.023438 -267.929688 124.828125 -267.609375 C 119.640625 -267.296875 115.160156 -266.984375 111.390625 -266.671875 L 111.390625 -172.28125 L 134.515625 -172.28125 C 160.003906 -172.28125 179.195312 -175.738281 192.09375 -182.65625 C 205 -189.582031 211.453125 -202.484375 211.453125 -221.359375 C 211.453125 -230.484375 209.796875 -238.035156 206.484375 -244.015625 C 203.179688 -249.992188 198.460938 -254.789062 192.328125 -258.40625 C 186.191406 -262.03125 178.71875 -264.550781 169.90625 -265.96875 C 161.101562 -267.382812 151.351562 -268.09375 140.65625 -268.09375 Z M 140.65625 -268.09375 "/></g></g></g><g fill="#ffffff" fill-opacity="1"><g transform="translate(503.853595, 641.949374)"><g><path d="M 99.59375 -163.78125 C 99.59375 -147.726562 101.554688 -133.25 105.484375 -120.34375 C 109.421875 -107.445312 115.085938 -96.359375 122.484375 -87.078125 C 129.878906 -77.796875 138.925781 -70.632812 149.625 -65.59375 C 160.320312 -60.5625 172.59375 -58.046875 186.4375 -58.046875 C 199.96875 -58.046875 212.160156 -60.5625 223.015625 -65.59375 C 233.867188 -70.632812 242.992188 -77.796875 250.390625 -87.078125 C 257.785156 -96.359375 263.445312 -107.445312 267.375 -120.34375 C 271.3125 -133.25 273.28125 -147.726562 273.28125 -163.78125 C 273.28125 -179.820312 271.3125 -194.375 267.375 -207.4375 C 263.445312 -220.5 257.785156 -231.671875 250.390625 -240.953125 C 242.992188 -250.234375 233.867188 -257.390625 223.015625 -262.421875 C 212.160156 -267.453125 199.96875 -269.96875 186.4375 -269.96875 C 172.59375 -269.96875 160.320312 -267.375 149.625 -262.1875 C 138.925781 -257 129.878906 -249.757812 122.484375 -240.46875 C 115.085938 -231.1875 109.421875 -220.015625 105.484375 -206.953125 C 101.554688 -193.898438 99.59375 -179.507812 99.59375 -163.78125 Z M 349.265625 -163.78125 C 349.265625 -135.769531 345.09375 -111.144531 336.75 -89.90625 C 328.414062 -68.664062 317.007812 -50.890625 302.53125 -36.578125 C 288.0625 -22.265625 270.835938 -11.488281 250.859375 -4.25 C 230.878906 2.988281 209.40625 6.609375 186.4375 6.609375 C 164.09375 6.609375 143.007812 2.988281 123.1875 -4.25 C 103.363281 -11.488281 86.054688 -22.265625 71.265625 -36.578125 C 56.484375 -50.890625 44.84375 -68.664062 36.34375 -89.90625 C 27.84375 -111.144531 23.59375 -135.769531 23.59375 -163.78125 C 23.59375 -191.78125 28 -216.398438 36.8125 -237.640625 C 45.625 -258.878906 57.503906 -276.734375 72.453125 -291.203125 C 87.398438 -305.679688 104.703125 -316.539062 124.359375 -323.78125 C 144.023438 -331.019531 164.71875 -334.640625 186.4375 -334.640625 C 208.769531 -334.640625 229.847656 -331.019531 249.671875 -323.78125 C 269.503906 -316.539062 286.8125 -305.679688 301.59375 -291.203125 C 316.382812 -276.734375 328.023438 -258.878906 336.515625 -237.640625 C 345.015625 -216.398438 349.265625 -191.78125 349.265625 -163.78125 Z M 349.265625 -163.78125 "/></g></g></g><g fill="#ffffff" fill-opacity="1"><g transform="translate(876.725055, 641.949374)"><g><path d="M 124.609375 -327.078125 C 130.265625 -316.703125 136.789062 -303.882812 144.1875 -288.625 C 151.582031 -273.363281 159.289062 -256.84375 167.3125 -239.0625 C 175.34375 -221.28125 183.289062 -203.109375 191.15625 -184.546875 C 199.019531 -165.984375 206.414062 -148.519531 213.34375 -132.15625 C 220.257812 -148.519531 227.648438 -165.984375 235.515625 -184.546875 C 243.378906 -203.109375 251.320312 -221.28125 259.34375 -239.0625 C 267.375 -256.84375 275.085938 -273.363281 282.484375 -288.625 C 289.878906 -303.882812 296.40625 -316.703125 302.0625 -327.078125 L 369.09375 -327.078125 C 372.238281 -305.367188 375.144531 -281.0625 377.8125 -254.15625 C 380.488281 -227.257812 382.847656 -199.253906 384.890625 -170.140625 C 386.941406 -141.035156 388.832031 -111.851562 390.5625 -82.59375 C 392.289062 -53.332031 393.785156 -25.800781 395.046875 0 L 323.3125 0 C 322.363281 -31.78125 321.101562 -66.390625 319.53125 -103.828125 C 317.957031 -141.273438 315.597656 -179.035156 312.453125 -217.109375 C 306.785156 -203.898438 300.488281 -189.269531 293.5625 -173.21875 C 286.644531 -157.164062 279.800781 -141.113281 273.03125 -125.0625 C 266.269531 -109.019531 259.742188 -93.679688 253.453125 -79.046875 C 247.160156 -64.421875 241.8125 -51.914062 237.40625 -41.53125 L 185.96875 -41.53125 C 181.5625 -51.914062 176.207031 -64.421875 169.90625 -79.046875 C 163.613281 -93.679688 157.082031 -109.019531 150.3125 -125.0625 C 143.550781 -141.113281 136.707031 -157.164062 129.78125 -173.21875 C 122.863281 -189.269531 116.578125 -203.898438 110.921875 -217.109375 C 107.773438 -179.035156 105.414062 -141.273438 103.84375 -103.828125 C 102.269531 -66.390625 101.007812 -31.78125 100.0625 0 L 28.3125 0 C 29.570312 -25.800781 31.066406 -53.332031 32.796875 -82.59375 C 34.535156 -111.851562 36.425781 -141.035156 38.46875 -170.140625 C 40.507812 -199.253906 42.867188 -227.257812 45.546875 -254.15625 C 48.222656 -281.0625 51.132812 -305.367188 54.28125 -327.078125 Z M 124.609375 -327.078125 "/></g></g></g><g fill="#ffffff" fill-opacity="1"><g transform="translate(199.892594, 1208.300372)"><g><path d="M 135.9375 -330.859375 C 184.707031 -330.859375 222.148438 -322.285156 248.265625 -305.140625 C 274.378906 -287.992188 287.4375 -259.910156 287.4375 -220.890625 C 287.4375 -181.554688 274.21875 -153.15625 247.78125 -135.6875 C 221.351562 -118.226562 183.597656 -109.5 134.515625 -109.5 L 111.390625 -109.5 L 111.390625 0 L 37.765625 0 L 37.765625 -322.359375 C 53.804688 -325.503906 70.796875 -327.707031 88.734375 -328.96875 C 106.671875 -330.226562 122.40625 -330.859375 135.9375 -330.859375 Z M 140.65625 -268.09375 C 135.300781 -268.09375 130.023438 -267.929688 124.828125 -267.609375 C 119.640625 -267.296875 115.160156 -266.984375 111.390625 -266.671875 L 111.390625 -172.28125 L 134.515625 -172.28125 C 160.003906 -172.28125 179.195312 -175.738281 192.09375 -182.65625 C 205 -189.582031 211.453125 -202.484375 211.453125 -221.359375 C 211.453125 -230.484375 209.796875 -238.035156 206.484375 -244.015625 C 203.179688 -249.992188 198.460938 -254.789062 192.328125 -258.40625 C 186.191406 -262.03125 178.71875 -264.550781 169.90625 -265.96875 C 161.101562 -267.382812 151.351562 -268.09375 140.65625 -268.09375 Z M 140.65625 -268.09375 "/></g></g></g><g fill="#ffffff" fill-opacity="1"><g transform="translate(503.853595, 1208.300372)"><g><path d="M 99.59375 -163.78125 C 99.59375 -147.726562 101.554688 -133.25 105.484375 -120.34375 C 109.421875 -107.445312 115.085938 -96.359375 122.484375 -87.078125 C 129.878906 -77.796875 138.925781 -70.632812 149.625 -65.59375 C 160.320312 -60.5625 172.59375 -58.046875 186.4375 -58.046875 C 199.96875 -58.046875 212.160156 -60.5625 223.015625 -65.59375 C 233.867188 -70.632812 242.992188 -77.796875 250.390625 -87.078125 C 257.785156 -96.359375 263.445312 -107.445312 267.375 -120.34375 C 271.3125 -133.25 273.28125 -147.726562 273.28125 -163.78125 C 273.28125 -179.820312 271.3125 -194.375 267.375 -207.4375 C 263.445312 -220.5 257.785156 -231.671875 250.390625 -240.953125 C 242.992188 -250.234375 233.867188 -257.390625 223.015625 -262.421875 C 212.160156 -267.453125 199.96875 -269.96875 186.4375 -269.96875 C 172.59375 -269.96875 160.320312 -267.375 149.625 -262.1875 C 138.925781 -257 129.878906 -249.757812 122.484375 -240.46875 C 115.085938 -231.1875 109.421875 -220.015625 105.484375 -206.953125 C 101.554688 -193.898438 99.59375 -179.507812 99.59375 -163.78125 Z M 349.265625 -163.78125 C 349.265625 -135.769531 345.09375 -111.144531 336.75 -89.90625 C 328.414062 -68.664062 317.007812 -50.890625 302.53125 -36.578125 C 288.0625 -22.265625 270.835938 -11.488281 250.859375 -4.25 C 230.878906 2.988281 209.40625 6.609375 186.4375 6.609375 C 164.09375 6.609375 143.007812 2.988281 123.1875 -4.25 C 103.363281 -11.488281 86.054688 -22.265625 71.265625 -36.578125 C 56.484375 -50.890625 44.84375 -68.664062 36.34375 -89.90625 C 27.84375 -111.144531 23.59375 -135.769531 23.59375 -163.78125 C 23.59375 -191.78125 28 -216.398438 36.8125 -237.640625 C 45.625 -258.878906 57.503906 -276.734375 72.453125 -291.203125 C 87.398438 -305.679688 104.703125 -316.539062 124.359375 -323.78125 C 144.023438 -331.019531 164.71875 -334.640625 186.4375 -334.640625 C 208.769531 -334.640625 229.847656 -331.019531 249.671875 -323.78125 C 269.503906 -316.539062 286.8125 -305.679688 301.59375 -291.203125 C 316.382812 -276.734375 328.023438 -258.878906 336.515625 -237.640625 C 345.015625 -216.398438 349.265625 -191.78125 349.265625 -163.78125 Z M 349.265625 -163.78125 "/></g></g></g><g fill="#ffffff" fill-opacity="1"><g transform="translate(876.725055, 1208.300372)"><g><path d="M 124.609375 -327.078125 C 130.265625 -316.703125 136.789062 -303.882812 144.1875 -288.625 C 151.582031 -273.363281 159.289062 -256.84375 167.3125 -239.0625 C 175.34375 -221.28125 183.289062 -203.109375 191.15625 -184.546875 C 199.019531 -165.984375 206.414062 -148.519531 213.34375 -132.15625 C 220.257812 -148.519531 227.648438 -165.984375 235.515625 -184.546875 C 243.378906 -203.109375 251.320312 -221.28125 259.34375 -239.0625 C 267.375 -256.84375 275.085938 -273.363281 282.484375 -288.625 C 289.878906 -303.882812 296.40625 -316.703125 302.0625 -327.078125 L 369.09375 -327.078125 C 372.238281 -305.367188 375.144531 -281.0625 377.8125 -254.15625 C 380.488281 -227.257812 382.847656 -199.253906 384.890625 -170.140625 C 386.941406 -141.035156 388.832031 -111.851562 390.5625 -82.59375 C 392.289062 -53.332031 393.785156 -25.800781 395.046875 0 L 323.3125 0 C 322.363281 -31.78125 321.101562 -66.390625 319.53125 -103.828125 C 317.957031 -141.273438 315.597656 -179.035156 312.453125 -217.109375 C 306.785156 -203.898438 300.488281 -189.269531 293.5625 -173.21875 C 286.644531 -157.164062 279.800781 -141.113281 273.03125 -125.0625 C 266.269531 -109.019531 259.742188 -93.679688 253.453125 -79.046875 C 247.160156 -64.421875 241.8125 -51.914062 237.40625 -41.53125 L 185.96875 -41.53125 C 181.5625 -51.914062 176.207031 -64.421875 169.90625 -79.046875 C 163.613281 -93.679688 157.082031 -109.019531 150.3125 -125.0625 C 143.550781 -141.113281 136.707031 -157.164062 129.78125 -173.21875 C 122.863281 -189.269531 116.578125 -203.898438 110.921875 -217.109375 C 107.773438 -179.035156 105.414062 -141.273438 103.84375 -103.828125 C 102.269531 -66.390625 101.007812 -31.78125 100.0625 0 L 28.3125 0 C 29.570312 -25.800781 31.066406 -53.332031 32.796875 -82.59375 C 34.535156 -111.851562 36.425781 -141.035156 38.46875 -170.140625 C 40.507812 -199.253906 42.867188 -227.257812 45.546875 -254.15625 C 48.222656 -281.0625 51.132812 -305.367188 54.28125 -327.078125 Z M 124.609375 -327.078125 "/></g></g></g></svg>